<svg id="Layer_1" data-name="Layer 1" xmlns="http://www.w3.org/2000/svg" viewBox="0 0 729 180.24"><defs><style>.cls-1{fill:#fff;stroke:#58595b;stroke-miterlimit:10;stroke-width:12px;}.cls-2{fill:#525352;}</style></defs><title>LOGO_001</title><path class="cls-1" d="M643.65,51.35c0-.06-.05-.11-.1-.17l-.34-.43-.23-.29c-6.75-8.63-20.49-29.84-20.49-29.84s-17.63,24.48-21.86,30c0,0,0,.06-.05.09a27.18,27.18,0,1,0,43.07.65Z"/><path class="cls-2" d="M82.79,64.35c19,0,34.21,13.84,34.21,33.3s-15.22,33.3-34.08,33.3-34.21-13.72-34.21-33.3S63.92,64.35,82.79,64.35Zm.12,53.13c10,0,18.38-8,18.38-19.83s-8.4-19.83-18.38-19.83-18.5,8.11-18.5,19.83S72.81,117.47,82.91,117.47Z"/><path class="cls-2" d="M155.34,90.16h3.9V88c0-8.11-5-11-11.44-11-9.25,0-17.53,6.11-17.53,6.11l-5.72-11a41.57,41.57,0,0,1,24.59-7.86c16.68,0,25.56,8.86,25.56,25.07v25.44a2.41,2.41,0,0,0,2.68,2.74H183v11.85H168.36c-5.72,0-7.91-3.12-7.91-6.73V122a12.65,12.65,0,0,1,.37-3.24h-.24A21.64,21.64,0,0,1,141,130.94c-10.59,0-20.57-6.36-20.57-19.33C120.4,92.16,145.35,90.16,155.34,90.16ZM145,119.1c8.4,0,14.36-9.23,14.36-17.21V99.76H156.8c-6.09,0-20.82,1-20.82,10.6C136,115.1,139.27,119.1,145,119.1Z"/><path class="cls-2" d="M192.7,77.69h-9.49V65.84h10V48.51h15V65.84h14.12V77.69H208.16V104.5c0,10.85,8,12.35,12.42,12.35a27.35,27.35,0,0,0,2.8-.12v13a27.81,27.81,0,0,1-4.75.37c-8.76,0-25.93-2.62-25.93-23.95Z"/><path class="cls-2" d="M231.53,113.48H247v16H231.53Z"/><path class="cls-2" d="M257,117.6h9V80.31a2.37,2.37,0,0,0-2.68-2.62h-6.94V65.84h16.19c5.48,0,8.16,2.62,8.16,7.11v2.87a17.94,17.94,0,0,1-.24,2.74h.24c3.16-6.48,11-14.22,21.18-14.22,8.64,0,14.85,4.12,17.29,13.84h.24A24.15,24.15,0,0,1,341,64.35c12.54,0,20,7.48,20,24.2V117.6h9v11.85H345.47V91.53c0-7.23-1.34-12.72-8.52-12.72-10.59,0-15.82,10.85-15.82,22.57V117.6h9v11.85H305.78V91.53c0-6.86-1.09-12.72-8.4-12.72-11,0-15.95,11.85-15.95,23.32V117.6h8.89v11.85H257Z"/><path class="cls-2" d="M404.38,64.35c17.89,0,27.63,13.34,27.63,30.18,0,1.87-.37,5.36-.37,5.36h-43c1,11.72,9.25,17.71,18.62,17.71,10.1,0,18-6.73,18-6.73l6,11.22a39,39,0,0,1-25.08,8.85c-20.57,0-33.35-15.21-33.35-33.3C372.85,78.06,385.75,64.35,404.38,64.35Zm11.69,26.19c-.24-8.73-5.48-14-12.05-14-7.91,0-13.51,5.61-15,14Z"/><path class="cls-2" d="M470.72,90.16h3.9V88c0-8.11-5-11-11.44-11-9.25,0-17.53,6.11-17.53,6.11l-5.72-11a41.57,41.57,0,0,1,24.59-7.86c16.68,0,25.56,8.86,25.56,25.07v25.44a2.41,2.41,0,0,0,2.68,2.74h5.6v11.85H483.74c-5.72,0-7.91-3.12-7.91-6.73V122a12.65,12.65,0,0,1,.37-3.24H476a21.65,21.65,0,0,1-19.6,12.22c-10.59,0-20.57-6.36-20.57-19.33C435.78,92.16,460.74,90.16,470.72,90.16ZM460.37,119.1c8.4,0,14.36-9.23,14.36-17.21V99.76h-2.56c-6.09,0-20.82,1-20.82,10.6C451.36,115.1,454.65,119.1,460.37,119.1Z"/><path class="cls-2" d="M505.65,52.75H496V40.9h25v67.35c0,5.74,1.22,8.73,6.33,8.73,1.71,0,2.92-.12,2.92-.12v12.72a43.34,43.34,0,0,1-5.6.37c-9.86,0-19-3.37-19-20.7Z"/><path class="cls-1" d="M661,91.2c0-.08,0-.15,0-.24s0-.45-.07-.66,0-.29,0-.44c-1.46-13.13-2.13-43.57-2.13-43.57s-33.57,14-41.4,16.93l-.11.06A32.76,32.76,0,1,0,661,91.2Z"/><path class="cls-1" d="M618.76,73.93c-.07,0-.11-.05-.18-.07l-.53-.12-.36-.08C607,71.17,583,63.29,583,63.29s1.65,30.12,1.81,37.07c0,0,0,.07,0,.11a27.18,27.18,0,1,0,33.93-26.53Z"/></svg>