<svg id="Layer_1" data-name="Layer 1" xmlns="http://www.w3.org/2000/svg" viewBox="0 0 569.6 90.3"><title>LOGO</title><path d="M34.1,23.7C15.2,23.7,0,37.5,0,57S15.2,90.3,34.2,90.3,68.3,76.6,68.3,57,53.1,23.7,34.1,23.7Zm.1,53.1c-10.1,0-18.5-8-18.5-19.8s8.4-19.8,18.5-19.8S52.6,45.3,52.6,57,44.2,76.8,34.2,76.8Z" fill="#525352"/><path d="M126,74.2V48.7c0-16.2-8.9-25.1-25.6-25.1a41.6,41.6,0,0,0-24.6,7.9l5.7,11s8.3-6.1,17.5-6.1c6.5,0,11.4,2.9,11.4,11v2.1h-3.9c-10,0-34.9,2-34.9,21.5,0,13,10,19.3,20.6,19.3a21.6,21.6,0,0,0,19.6-12.2h.2a12.7,12.7,0,0,0-.4,3.2V82c0,3.6,2.2,6.7,7.9,6.7h14.6V76.9h-5.6A2.4,2.4,0,0,1,126,74.2Zm-15.3-13c0,8-6,17.2-14.4,17.2-5.7,0-9-4-9-8.7,0-9.6,14.7-10.6,20.8-10.6h2.6Z" fill="#525352"/><path d="M159.5,63.8V37h14.1V25.2H159.5V7.8h-15V25.2h-10V37H144V65.5c0,21.3,17.2,23.9,25.9,23.9a27.8,27.8,0,0,0,4.7-.4v-13h-2.8C167.5,76.2,159.5,74.7,159.5,63.8Z" fill="#525352"/><rect x="182.8" y="72.8" width="15.5" height="15.96" fill="#525352"/><path d="M312.2,47.9c0-16.7-7.4-24.2-20-24.2a24.2,24.2,0,0,0-21.5,13.8h-.2c-2.4-9.7-8.6-13.8-17.3-13.8-10.2,0-18,7.7-21.2,14.2h-.2a17.9,17.9,0,0,0,.2-2.7V32.3c0-4.5-2.7-7.1-8.2-7.1H207.7V37h6.9a2.4,2.4,0,0,1,2.7,2.6V76.9h-9V88.8h33.4V76.9h-8.9V61.5c0-11.5,5-23.3,15.9-23.3,7.3,0,8.4,5.9,8.4,12.7V88.8h24.3V76.9h-9V60.7c0-11.7,5.2-22.6,15.8-22.6,7.2,0,8.5,5.5,8.5,12.7V88.8h24.5V76.9h-9Z" fill="#525352"/><path d="M355.7,23.7c-18.6,0-31.5,13.7-31.5,33.3s12.8,33.3,33.4,33.3a39,39,0,0,0,25.1-8.9l-6-11.2s-7.9,6.7-18,6.7-17.6-6-18.6-17.7h43s.4-3.5.4-5.4C383.3,37,373.6,23.7,355.7,23.7ZM340.3,49.9c1.5-8.4,7.1-14,15-14s11.8,5.2,12.1,14Z" fill="#525352"/><path d="M441.4,74.2V48.7c0-16.2-8.9-25.1-25.6-25.1a41.6,41.6,0,0,0-24.6,7.9l5.7,11s8.3-6.1,17.5-6.1c6.5,0,11.4,2.9,11.4,11v2.1H422c-10,0-34.9,2-34.9,21.5,0,13,10,19.3,20.6,19.3a21.6,21.6,0,0,0,19.6-12.2h.2a12.7,12.7,0,0,0-.4,3.2V82c0,3.6,2.2,6.7,7.9,6.7h14.6V76.9H444A2.4,2.4,0,0,1,441.4,74.2ZM426,61.2c0,8-6,17.2-14.4,17.2-5.7,0-9-4-9-8.7,0-9.6,14.7-10.6,20.8-10.6H426Z" fill="#525352"/><path d="M472.3,67.6V50.3h0V32.2h0V.2h-25V12.1h9.6V32.2h-.1V50.3h.1V68.6c0,17.3,9.1,20.7,19,20.7a43.3,43.3,0,0,0,5.6-.4V76.2h-2.9C473.5,76.3,472.3,73.3,472.3,67.6Z" fill="#525352"/><path d="M564.1,47c-.7-.3-3.1-1.1-6.5-2.1a25.1,25.1,0,0,0,1.2-9.9c0-.2,0-.4,0-.6v-.6c-.8-7.1-1.2-24-1.2-24.2L557.2,0l-8.8,3.7c-.2.1-19,8-23.3,9.6l-.7.3h0a24.8,24.8,0,0,0-7.5,4.7l-2.1-2.3-4.1-4.4-4.7,3.8c-.8.6-18.6,15.4-19,35.3-.2,9.3,5.1,21.7,12.3,28.9a27.1,27.1,0,0,0,2.6,2.3,13.3,13.3,0,0,0,2.7,1.8l.5.2h0l.8.4h0A51.7,51.7,0,0,0,527.1,89a42.5,42.5,0,0,0,15.4-2.8c18.9-7.3,25.4-30.4,25.6-31.4l1.6-5.7ZM529.6,25.5l.5-.2,14.7-6c.2,5.4.5,12,1,16v.5a12,12,0,0,1-1,6,65.3,65.3,0,0,0-13.1-1h.1a76.9,76.9,0,0,0-7-12.2A12,12,0,0,1,529.6,25.5ZM502.1,60.6h0a25.2,25.2,0,0,1-2.3-9.7c.2-8.6,5.6-16.4,9.7-21h0a87.1,87.1,0,0,1,9.5,14.5A55.4,55.4,0,0,0,502.1,60.6ZM537.8,74c-11.9,4.6-23.3,0-27-1.9.3-1.5,2.1-5.2,6.6-9.9s9.7-7.8,11.4-8.1c6.9-1.3,17.4,1,24.6,3C550.7,62.8,545.8,71,537.8,74Z" fill="#525352"/></svg>